<svg xmlns="http://www.w3.org/2000/svg" viewBox="0 0 228.04 239.72"><g id="Layer_2" data-name="Layer 2"><g id="Layer_1-2" data-name="Layer 1"><path d="M125.05,228c-40.58,8.34-84.8-12.29-104-49.1C-.23,138,10.64,87.13,41.09,54.05,69.77,22.9,119.57-1.28,161.54,15.21c44.12,17.33,63.45,66.6,54.32,111.14-5.14,25.1-18.54,47.71-36.41,65.87s-43.16,37.7-69.85,37.12c-6.44-.14-6.44,9.86,0,10,26.07.57,50.08-15.72,68.83-32.37,18.49-16.41,33.4-37,42-60.23C238,99.31,225.16,42.29,181.26,14.16,160,.56,135.17-3,110.73,2.49,87,7.87,64.47,19.64,46,35.44,8.59,67.45-10,119.5,5.48,167.31,21.81,217.69,76,248.24,127.71,237.62c6.3-1.29,3.63-10.93-2.66-9.64Z"/><path d="M108.75,172.05a36.78,36.78,0,0,1-.35-4.75c0-.13.29-.51.26-.63,0-.44-.36-.65-1.11-.62l.22.87c-.5,2.53.39,5.39-.83,7.84-.22.46-1.42,1.24-1.47,1.37s-1.4-.59.08.34c.9.56.26.21.38-.55.23-1.45-.19-2.95.3-4.38.44-1.28.64-.69.14-1.23v-7.07c-.83,1-1.07,1-2.33.57-6.05-2.22-8.66,7.44-2.66,9.64a11.06,11.06,0,0,0,12.06-3.14,5.13,5.13,0,0,0,0-7.07c-3.12-3.38-8.15-3.59-12-1.26-4.28,2.59-5.41,7.77-5.52,12.41s1.13,9.2,5.83,11a11.15,11.15,0,0,0,11.4-2.36c3.44-3.32,4.28-8.16,4.55-12.73.26-4.39-.21-9.36-4.13-12.1s-9.19-1.57-12.38,1.87c-3.73,4-3.09,9.67-2.09,14.6,1.28,6.31,10.92,3.64,9.64-2.65Z"/><path d="M111.91,130.32c.17-17.11-5.06-33.38-8.55-49.95a125,125,0,0,1-2.12-12.6c-.37-3.44-1.81-8.31,1.45-10.16,3.46-2,9.21-2.3,13.13-2.8a90.88,90.88,0,0,1,14.75-.58l-4.31-7.53c-12.72,27.15-17.27,56.67-21.43,86.09l9.82,1.33-7.56-68.36h-10l3.53,26.31c.84,6.26,10.79,6.41,10,0a52.25,52.25,0,0,1,4.6-29.46l-9.14-3.85A277.37,277.37,0,0,0,103.55,91c-.11,5.85,8,6.5,9.82,1.33L122.11,67l-9.64-2.66a25.94,25.94,0,0,1-4.93,10.33l9.13,3.85,3.53-19.74c.56-3.15-1.33-6.34-4.82-6.33l-15.78,0,1.33,9.83a73.82,73.82,0,0,1,7.82-2.73c1.18-.33,2.37-.65,3.58-.9a10.36,10.36,0,0,1,1.57-.3c1,0,.92-.24-.28-.71l-.5-3.86-.26.81c-2,6.13,7.67,8.76,9.64,2.65,1.48-4.56-2.09-8.08-6.39-8.83-5.65-1-12.72,2.15-17.84,4.22-4.92,2-4.74,9.84,1.33,9.82l15.78,0-4.82-6.33L107,75.81c-1,5.78,5.69,8.36,9.14,3.86A32.73,32.73,0,0,0,122.11,67c1.46-6.31-7.55-8.73-9.64-2.66l-8.74,25.34L113.55,91a253.75,253.75,0,0,1,2.18-29.54c.68-5-6.42-9.49-9.14-3.86a61.53,61.53,0,0,0-6,34.51h10l-3.53-26.31c-.83-6.23-10.71-6.45-10,0l7.56,68.36c.56,5,9,7.41,9.82,1.33,4-28.42,8.13-57.46,20.42-83.7,1.61-3.43-.3-7.39-4.32-7.52-10.31-.34-21.3.59-31.14,3.93s-9.05,12.55-8,21.36c2.47,20.46,10.68,40,10.47,60.8-.06,6.44,9.94,6.44,10,0Z"/></g></g></svg>