<svg xmlns="http://www.w3.org/2000/svg" viewBox="0 0 278.13 306.51"><g id="Layer_2" data-name="Layer 2"><g id="Layer_1-2" data-name="Layer 1"><path d="M140.05,268.17c-22.61,7.6-46.61-2.85-63.51-18.07-16.68-15-28.49-34.91-34.61-56.43-12.51-44,.72-91.14,31.12-124.7,15.83-17.47,36.72-34,61.3-34.32,22.55-.31,45.05,8.79,62.83,22.3,36.61,27.83,52.43,75,42,119.56-11.71,50.1-54.75,86.8-105,94.6l6.32,4.82.88-10.69c.52-6.42-9.48-6.38-10,0l-.88,10.69c-.29,3.57,3.42,5.27,6.33,4.82,48.69-7.55,91.75-41.54,108.15-88.32C261.59,145,249.55,90.87,212.33,56.68c-17.17-15.78-38.85-27.1-62-30.75-14-2.22-28.26-1.6-41.49,3.87C97,34.7,86.47,42.45,77,51,40.34,83.76,20.7,133.87,29.17,182.72,33.81,209.42,46.66,235,66.08,254c19.72,19.29,49,33.1,76.63,23.82,6.07-2,3.47-11.7-2.66-9.64Z"/><path d="M126,265.33l4,36.37c.7,6.39,9.34,6.45,10,0a113,113,0,0,0-1.43-32.26c-1.17-6.32-10.81-3.64-9.64,2.66A104.15,104.15,0,0,1,130,301.7h10l-4-36.37c-.7-6.33-10.71-6.4-10,0Z"/><path d="M230.11,156.23l43.11-2.7-1.33-9.82-47,6.67c-6.35.9-3.65,10.54,2.65,9.64l47-6.67c5.56-.78,4.27-10.17-1.33-9.82l-43.11,2.7c-6.4.4-6.44,10.4,0,10Z"/><path d="M140.42,46.34a206.49,206.49,0,0,0-2.27-42.73l-9.64,2.66a164.06,164.06,0,0,1,4.86,42.79c-.12,6.43,9.88,6.43,10,0a174.45,174.45,0,0,0-5.22-45.45c-1.6-6.38-10.61-3.55-9.64,2.66a194.62,194.62,0,0,1,1.91,40.07c-.33,6.44,9.67,6.42,10,0Z"/><path d="M50.39,160a363,363,0,0,1-45.57,1.63v10l38.83-2.79c6.39-.45,6.44-10.46,0-10L4.82,161.62c-6.36.45-6.5,9.82,0,10A363,363,0,0,0,50.39,170c6.34-.62,6.41-10.63,0-10Z"/></g></g></svg>