<svg xmlns="http://www.w3.org/2000/svg" viewBox="0 0 205.93 329.36"><g id="Layer_2" data-name="Layer 2"><g id="Layer_1-2" data-name="Layer 1"><path d="M114.64,324a66.93,66.93,0,0,1,27.83-.23v-9.65a110.92,110.92,0,0,1-20.75,4.62c-3.65.42-13.2,2.57-15.15-1.77l-1.79,6.84a77.44,77.44,0,0,1,36.59-14.56c6.23-.72,6.61-9.94,0-10l-42.24-.38,2.52,9.32A156.9,156.9,0,0,1,147,294.92c5.62-.78,4.21-9.94-1.33-9.82l-45.15,1,1.32,9.82,41.55-12.49c6.15-1.85,3.53-11.5-2.66-9.64L99.15,286.3c-5.29,1.59-4.46,9.95,1.33,9.82l45.15-1-1.33-9.82a165.59,165.59,0,0,0-47.7,14.31c-4.67,2.2-2.14,9.28,2.53,9.32l42.24.38v-10a87.37,87.37,0,0,0-41.64,15.93,5.2,5.2,0,0,0-1.8,6.84c3.17,7.06,11.65,7.63,18.38,7.2a120.88,120.88,0,0,0,28.82-5.45c4.4-1.4,5.1-8.61,0-9.65a80,80,0,0,0-33.15.23c-6.29,1.37-3.63,11,2.66,9.65Z"/><path d="M136.52,243.41a146.68,146.68,0,0,0-44.08,8.45l6.33,4.82C100.4,210.82,61,180,34.88,147.59,21.47,131,9.6,111.17,9.86,89.12c.23-19.27,10-36.92,23.49-50.16C62.69,10.27,109.67,1.84,147.29,18.29,166,26.48,181,40.78,189.34,59.51c7.88,17.79,9.29,39.25,1.09,57.19-10.29,22.53-31.84,37.47-43.19,59.46A107.35,107.35,0,0,0,138,248.37c1.39,6.28,11,3.62,9.64-2.66a96.44,96.44,0,0,1,10.57-68.8c11.78-20.29,31.87-34.74,41.42-56.47,16.94-38.51-2.07-84.59-37.11-105.52-36.87-22-86.9-19.15-121.92,5.19-16.36,11.37-29.91,27-36.65,46-7.24,20.34-4.08,42,5.45,61.07,11.57,23.1,30.64,41,47.36,60.28,16.85,19.43,32.94,42.41,32,69.26-.11,3.07,3.31,5.91,6.32,4.82a137.67,137.67,0,0,1,41.43-8.09c6.42-.24,6.45-10.24,0-10Z"/><path d="M122.18,240.54a460.66,460.66,0,0,0-6.64-96.12c-2-11.37-5.47-23.75-15-31.16-4.71-3.67-10.45-5.81-16-2.51-4.84,2.89-7.9,8.45-8.49,14-1.36,12.76,13.31,23.52,24.4,15.24,5.1-3.81.12-12.49-5-8.63A5.79,5.79,0,0,1,86,126.76c-.06-2.35,1-5.54,3-6.93,2.46-1.68,5.23.92,7,2.7,7.86,7.79,9.26,20.57,10.92,30.94a455.57,455.57,0,0,1,5.21,87.07c-.21,6.44,9.79,6.43,10,0Z"/><path d="M121.55,204.57c-2.91-5.07-3.07-11-3.59-16.68l-1.81-19.38-3.69-39.73c-.54-5.88-2-12.63-.57-18.47.62-2.6,2-5.23,4.6-6.3s4.66.62,6.47,2.45a44.68,44.68,0,0,1,9.52,14.46c1.05,2.56,2.11,5.55,1.6,8.35-.21,1.13-.66,2.79-1.72,3.48-.67.43-2.86,1.33-3-.26-.59-6.35-10.6-6.41-10,0,.52,5.69,4.48,10.34,10.41,10.85s11.25-3.72,13.34-9.23c4.62-12.18-5.69-28.49-14.65-36.22-10.71-9.23-24.33-1.37-26.55,11.45-1.32,7.63.2,15.69.91,23.32l2.34,25.19,2.62,28.1c.75,8.11,1,16.44,5.14,23.67,3.2,5.58,11.85.55,8.63-5.05Z"/></g></g></svg>