<svg xmlns="http://www.w3.org/2000/svg" viewBox="0 0 270.11 303.13"><g id="Layer_2" data-name="Layer 2"><g id="Layer_1-2" data-name="Layer 1"><path d="M56.59,296.85c-5.8-40.43,20.89-82.59,59.56-95.21,4.33-1.42,4.66-6.63,1.2-9.14-13.25-9.63-20.46-26-20.39-42.23.08-16.78,8.52-32.1,21.39-42.59,12.42-10.13,34.1-19.18,49.71-11.44,14.92,7.4,21.21,28,21.55,43.48.4,18.26-6.48,36.21-19.76,48.86-2.5,2.38-1.53,6.07,1,7.85a141.44,141.44,0,0,1,58.51,97.66c.76,6.31,10.77,6.39,10,0A152.38,152.38,0,0,0,175.91,187.8l1,7.85c14.26-13.59,22.19-32.8,22.68-52.42.48-18.72-6.09-40.42-21.39-52.29-17.3-13.43-43.34-6.49-60.08,4.57-16.41,10.84-28.31,27.95-30.71,47.67-2.7,22.19,6.79,44.8,24.88,57.95l1.2-9.14C69.16,206.46,40.35,253.5,47,299.51c.91,6.34,10.55,3.64,9.64-2.66Z"/><path d="M51.54,160.59c-6.42,4.27-14.15,4.67-21.6,5.51L4.77,169c-6.32.71-6.4,10.72,0,10l28.9-3.27c8-.91,16-1.88,22.92-6.45,5.33-3.55.33-12.21-5.05-8.64Z"/><path d="M65.37,102.12A148.88,148.88,0,0,1,25.44,64.49c-3.74-5.16-12.42-.17-8.63,5a161.55,161.55,0,0,0,43.51,41.22c5.43,3.49,10.45-5.16,5.05-8.63Z"/><path d="M150.15,58.93l.46-25.86.22-11.94c0-1.3-.34-11.77.09-12l-3.85.5.9.16c6.3,1.09,9-8.54,2.66-9.64-11.61-2-9.67,13.88-9.8,21l-.68,37.8c-.12,6.44,9.88,6.44,10,0Z"/><path d="M223.86,80.25a172.81,172.81,0,0,1,32.85-35.77c5-4.1-2.15-11.14-7.08-7.07a182,182,0,0,0-34.4,37.79c-3.65,5.32,5,10.33,8.63,5Z"/><path d="M220.36,152.88a265.47,265.47,0,0,0,42.23,29c5.65,3.1,10.7-5.53,5.05-8.64a252.16,252.16,0,0,1-40.21-27.4c-4.91-4.1-12,2.94-7.07,7.07Z"/></g></g></svg>