<svg xmlns="http://www.w3.org/2000/svg" viewBox="0 0 225.83 242.94"><g id="Layer_2" data-name="Layer 2"><g id="Layer_1-2" data-name="Layer 1"><path d="M104.11,2.64C57.41,9.1,16.17,44.86,4,90.55-8.64,137.77,9.44,190.77,49,219.58c39.21,28.55,98.57,32.65,138.28,2.72,41.27-31.11,45.28-94,31.16-139.85-8.28-26.87-24.35-51.4-48.31-66.68C147.23,1.15,118.3-4.5,92.11,4c-6.1,2-3.49,11.62,2.65,9.64,21.28-6.86,44.31-3.49,63.84,7,20.61,11.07,35.77,29.33,45.11,50.61,9.54,21.73,13,46.18,11.56,69.77-1.32,22.23-7.66,45.56-22.52,62.69-30.59,35.26-87.32,36.4-126.1,15.24C26.86,197.2,5,151.36,10.91,106.66,17.33,57.89,58.57,19,106.77,12.28c6.35-.88,3.64-10.52-2.66-9.64Z"/><path d="M66.94,120q24.16,1.47,48.23,4.14,12.1,1.35,24.16,3,5.88.82,11.73,1.72c2.61.4,8.4.31,10.28,2.46,4.24,4.86,11.29-2.24,7.07-7.07-4.79-5.49-14.87-5.08-21.53-6.05q-12.88-1.87-25.82-3.41-27-3.19-54.12-4.82c-6.43-.39-6.41,9.61,0,10Z"/></g></g></svg>