<svg xmlns="http://www.w3.org/2000/svg" viewBox="0 0 217.01 306.23"><g id="Layer_2" data-name="Layer 2"><g id="Layer_1-2" data-name="Layer 1"><path d="M111.24,292.34c-18.75,7.2-39.47,3.84-56.4-6.5-17.2-10.51-29.24-28.08-36.3-46.68-7.71-20.29-12.19-43.41-4.19-64.25,7.26-18.9,21.07-36.25,36.07-49.63,30.76-27.45,78-39.54,114.85-16.51,33.51,21,47.23,63,40.09,100.74-4.31,22.77-15,46.49-31.32,63.21-8.76,9-19.51,12.88-31.23,16.51-12.44,3.85-25.5,7.72-38.63,5.42-6.29-1.1-9,8.54-2.66,9.65,12.85,2.24,25.38,0,37.77-3.57,11.5-3.33,23.73-6.61,33.53-13.76,18.16-13.25,30.27-36,37.4-56.79,14.31-41.79,6.43-90.89-27.7-120.9C146.93,78,94.25,81.49,56.79,107.58a153.62,153.62,0,0,0-45.08,49.93C5.51,168.4,1.07,180.19.18,192.78c-.86,12.35,1.44,25,4.74,36.89,6.55,23.58,19.13,46.09,39,60.87,19.68,14.6,46.69,20.37,69.94,11.44,5.95-2.29,3.36-12-2.66-9.64Z"/><path d="M86.5,245.36q25.41-38.3,53.21-74.92c3.89-5.13-4.79-10.11-8.63-5.05Q103.3,202,77.86,240.31c-3.57,5.38,5.09,10.39,8.64,5.05Z"/><path d="M79.52,161c12,10.83,20.36,25.16,29.38,38.4q14.88,21.79,29.74,43.61c3.61,5.28,12.27.29,8.64-5.05q-15.43-22.64-30.86-45.26C107.28,179.33,98.7,164.91,86.59,154c-4.77-4.31-11.86,2.74-7.07,7.07Z"/><path d="M109.61,88.51,107.38,70l-3.67,4.83,10.9-3.42c1.62-.51,4-.8,5.45-1.71,1.78.11,2.26-.42,1.43-1.57.23.62.43,1.25.61,1.89,2.12,7.47,4.38,14.9,6.58,22.34,1.81,6.16,11.46,3.54,9.64-2.66l-4.74-16.08c-1.17-4-1.81-9.4-4.9-12.46-2.91-2.87-6.78-2.47-10.37-1.39-5.77,1.74-11.51,3.61-17.26,5.41-1.89.6-3.93,2.63-3.67,4.82l2.23,18.49c.76,6.31,10.77,6.39,10,0Z"/><path d="M115,65.77c8.76-3.82,13.7-14.72,8.91-23.46a16.58,16.58,0,0,0-10.5-8.11,16.36,16.36,0,0,0-6.72-.05c-1,.17-2.08.49-3.14.65l-1.17.22c-1.48-.14-1.56,0-.22.5l-.78,6.06c3.73-4.1,7.69-8.08,11.2-12.37,2.63-3.21,4.68-7.11,3.57-11.38a14.61,14.61,0,0,0-4.89-7.09c-1-.86-5.41-4.08-5.3-4.53C107.6,0,98-2.68,96.35,3.56c-1.56,6.07,2.36,9.76,6.68,13.27,3.12,2.53,4.22,3.08,1.45,6.52-3.13,3.88-6.78,7.46-10.14,11.15a5.12,5.12,0,0,0-.78,6.06c3.93,6.13,9.27,3.89,15.22,3.34,3.48-.32,6.87,1.82,7.08,5.64s-2.81,6.26-5.88,7.59c-5.88,2.57-.8,11.19,5,8.64Z"/></g></g></svg>