<svg xmlns="http://www.w3.org/2000/svg" viewBox="0 0 233.68 218.95"><g id="Layer_2" data-name="Layer 2"><g id="Layer_1-2" data-name="Layer 1"><path d="M109.56,1.52C63.12-.24,22.87,35.16,7.17,76.94c-8.62,22.93-10.23,49.24-.61,72.11,9.35,22.21,28.23,39.63,48.82,51.5,40.06,23.08,91.86,26.08,131.11-.36,17.72-11.94,32.08-28.7,40.22-48.53,8.87-21.61,9-46,1.85-68.14-8.24-25.43-25.37-46.75-47.6-61.4A137.8,137.8,0,0,0,145.31,5.55C131.67,1.39,116.74-1.59,102.53.92c-6.32,1.11-3.64,10.75,2.66,9.64,11.34-2,23.47.68,34.4,3.74a129.77,129.77,0,0,1,29.57,12.3C188,37.36,203.57,53,213.29,72.41c9.64,19.26,13.21,42,8.19,63.05-4.47,18.76-15.34,35.36-29.69,48.08-32,28.43-77.87,31.92-116.56,15.76-19.9-8.32-39-21.91-51.48-39.74-13.08-18.73-16.43-41.7-11.68-63.85,9.59-44.68,49.57-86,97.49-84.19,6.44.24,6.43-9.76,0-10Z"/><path d="M74.41,106.77a578.82,578.82,0,0,1,86.51,3.57c6.38.74,6.33-9.27,0-10a578.82,578.82,0,0,0-86.51-3.57c-6.42.22-6.45,10.22,0,10Z"/><path d="M119.24,55.65l1.93,93.23c.13,6.43,10.13,6.45,10,0l-1.93-93.23c-.13-6.42-10.13-6.45-10,0Z"/></g></g></svg>