<svg xmlns="http://www.w3.org/2000/svg" viewBox="0 0 381.41 294.87"><g id="Layer_2" data-name="Layer 2"><g id="Layer_1-2" data-name="Layer 1"><path d="M26.44,273.7,10,20.89,6.34,25.72c47.82-6.95,95.78-13.88,144.13-15.64,47.79-1.73,95.29,3.12,142.79,7.64l81.45,7.75-5-5c6.24,66.8-7,133.12-9,199.77a429.77,429.77,0,0,0,1.75,57l5-5c-47.59-.16-95.24-.23-142.75,2.88-44,2.88-87.88,10.58-132.07,9.79-24.39-.43-48.55-3.94-71.42-12.65-6-2.29-8.63,7.37-2.66,9.64,41.05,15.63,85.59,14.42,128.64,10.45,22.55-2.08,45-4.84,67.62-6.53,23.73-1.79,47.51-2.72,71.3-3.19,27.11-.54,54.23-.48,81.34-.39,2.5,0,5.28-2.3,5-5-6.83-66.76,6.27-133.12,8.63-199.73a442.58,442.58,0,0,0-1.36-57,5.18,5.18,0,0,0-5-5C326.42,10.87,278.14,5.61,229.77,2A777.39,777.39,0,0,0,84.91,5.18c-27.16,3-54.2,7-81.23,10.89-2,.3-3.8,2.84-3.67,4.82L16.44,273.7c.41,6.39,10.41,6.44,10,0Z"/><path d="M68.27,84.44a293,293,0,0,1,.24-37L60,51A208,208,0,0,1,90.22,88.29c2.87,4.52,8.69,2.19,9.32-2.53a274.59,274.59,0,0,1,9-41.77c1.83-6.19-7.82-8.83-9.65-2.66a292.72,292.72,0,0,0-9.38,44.43l9.32-2.52A219.68,219.68,0,0,0,67.05,43.9c-3.25-3.18-8.24-.7-8.54,3.53a293,293,0,0,0-.24,37c.37,6.4,10.37,6.44,10,0Z"/><path d="M154.84,38.12a29.25,29.25,0,0,0-32,4.23c-8.78,7.63-11,20.15-6.9,30.79,4.27,11,14.54,18.41,26.45,18.1C153.7,91,164.63,84.3,169,73.64c5.26-12.88.37-27.47-10.44-35.7-5.11-3.9-10.1,4.78-5,8.63,7.83,6,10.22,18.58,4.42,26.71-5.34,7.47-16.73,10.37-24.81,5.8s-11.68-15.82-7.66-24.16c4.16-8.62,15.88-12.31,24.35-8.17,5.75,2.82,10.83-5.8,5-8.63Z"/><path d="M229.51,42.65c-2.59-9.81-11.44-17.35-21.83-17-9.54.35-20.57,7.55-20,18.14.61,10.24,11.22,14.27,18.76,18.56,3.24,1.85,9.58,6.06,5.44,10.13-1.45,1.44-3.75,2.14-5.69,2.58a16.11,16.11,0,0,1-4.09.48l-1.85-.09c-1-1-1.42-.86-1.4.29,4.26-4.79-2.79-11.89-7.07-7.07a9.62,9.62,0,0,0-.05,13.1c3.67,4,9.58,4.13,14.56,3.39,9.64-1.43,19.92-8.87,16.26-19.85-1.61-4.81-5.68-8.29-9.86-10.88-4.34-2.69-10.08-4.15-13.43-8.23-4.3-5.23,2.6-10,7.66-10.52,6.28-.7,11.35,3.76,12.89,9.59,1.64,6.22,11.29,3.58,9.65-2.65Z"/><path d="M78.69,150.66a16,16,0,0,1,3.56-8.37l-7.85-1a26.28,26.28,0,0,0,8,8.12,5.09,5.09,0,0,0,6.06-.79,63.33,63.33,0,0,0,9.84-11.28H89.63l5.44,9.41a5.06,5.06,0,0,0,7.85,1c1-.92,3.25-.92,3.81.56,1.41,3.72,5.29,4.67,8.35,2.2l10.1-8.13-8.36-2.2c1,5.7,6.58,9.14,12.12,9.07,7.07-.09,11.82-5.94,15.63-11.15l-9.32-2.52c.07,13.91,18.21,18.88,25,6.5l-7.85,1,4.63,4.38a5,5,0,0,0,4.86,1.28,28.67,28.67,0,0,0,9.71-5.41h-7.07c6.92,5.86,17,5.85,23.38-.92l-8.36-4.86c-1.7,11.72,11.62,15.63,20.57,11.39,2.79-1.32,5.34-3.35,8.25-4.38,3.24-1.14,6.11.14,9.35.57a17.07,17.07,0,0,0,8.57-1.06c.56-.21,8.67-3.21,8.61-3-.92,3.43,1.65,6,4.82,6.33,3.48.4,6-1,9.15-2.33,4.72-2,7.73.37,12.3,1.64,6,1.66,12.21.56,15.78-4.87s-5.1-10.4-8.63-5c-1.84,2.8-11.57-2.33-13.95-2.66a14.65,14.65,0,0,0-7.3.83c-2.44.92-4.66,2.74-7.35,2.43l4.83,6.33c1.44-5.36-1.8-10-6.89-11.75a13.12,13.12,0,0,0-8.42,0c-2.84.88-5.64,3.17-8.64,3.39s-6.12-1.39-9.23-1.41a19.44,19.44,0,0,0-8.22,2c-2.74,1.26-5.25,3.31-8.08,4.33a6.45,6.45,0,0,1-3.85.38c-.71-.17-1.93-1.13-2-.48.66-4.52-4.57-8.88-8.35-4.87-2.42,2.57-6.36,3.36-9.24.92a5.19,5.19,0,0,0-7.07,0,15.63,15.63,0,0,1-5.3,2.84l4.87,1.29L159.46,136a5.05,5.05,0,0,0-7.85,1c-1.92,3.51-6.34,2.76-6.36-1.45,0-5.31-6.53-6.33-9.31-2.52-1.09,1.47-8.5,10.14-9.48,4.46-.7-4.1-5.75-4.3-8.35-2.21L108,143.44l8.36,2.21c-3.2-8.45-13.78-11.39-20.52-5l7.85,1-5.43-9.41c-2-3.44-6.56-3-8.64,0a52,52,0,0,1-8.27,9.26l6.06-.78A14.14,14.14,0,0,1,83,136.23c-1.6-2.53-5.68-3.56-7.86-1A25.33,25.33,0,0,0,69.05,148c-1,6.29,8.66,9,9.64,2.65Z"/><path d="M83.51,193.77l1.69-6.38H75.55A22.24,22.24,0,0,0,83,199.73c2.37,2,6.19,2,7.85-1,2.31-4.21,6.76-7,11.7-6.24,2.17.34,4.49-.21,5.64-2.3l5.12-9.27-9.14-1.19a30.39,30.39,0,0,0,4.51,11.35,5.06,5.06,0,0,0,7.85,1l-1.68-.77a5,5,0,0,0,7.52,4.32l6.63-4h-5a20.06,20.06,0,0,1,6.95,5.48c2.24,2.69,6.15,1.36,7.85-1l9.74-13.59h-8.64l7.87,14a5,5,0,0,0,7.85,1l9.71-9.68-4.87,1.29,6.28,2.64c2.7,1.14,5.23-1.27,6.15-3.49,2.32-5.59,8.83-2.92,9.82,1.86.73,3.59,5.94,4.95,8.35,2.21l8.07-9.18H192l6.19,6.19a5.08,5.08,0,0,0,7.07,0l9.15-8.81L206,178.3c3.21,10.24,14.87,9,23.4,8.36s18.7-1.89,21.44-11.42l-8.35,2.2c5.15,6.64,16.16,3.49,18.19-4.21l-8.36,2.21a11.13,11.13,0,0,0,16.31.24L263.81,177a84.31,84.31,0,0,0,43.86-.88l-3.85-.5,9.05,4.16c5.8,2.67,10.89-5.95,5-8.64-4.89-2.25-9.23-5.46-14.64-4.15a80.7,80.7,0,0,1-16.56,2.54,70.47,70.47,0,0,1-15.82-1.18c-2.17-.42-4.84-1.59-7.08-1-1.87.49-2.72,2.89-4.38,1-2.53-2.83-7.43-1.29-8.36,2.2-.3,1.16-1.16.2-1.47-.2-2.41-3.11-7.42-1.05-8.36,2.21-1.17,4-8.52,3.84-11.8,4.08-2.18.15-12.76,2.15-13.75-1a5.06,5.06,0,0,0-8.36-2.21l-9.15,8.81h7.07l-6.19-6.19c-1.82-1.82-5.29-2-7.07,0l-8.07,9.18,8.36,2.2c-1.34-6.54-7-12-13.81-12.36-7.13-.36-12.66,4.17-15.29,10.5l6.15-3.49-6.28-2.65c-1.59-.66-3.72.16-4.86,1.29l-9.71,9.68,7.85,1-7.86-14c-2-3.51-6.54-2.92-8.64,0L130.1,191l7.85-1c-2.36-2.84-5.48-5.68-9-7.05-4.43-1.72-8,1.81-11.67,4l7.52,4.32c0-7.84-9.86-12-15.39-6.3l7.85,1a23.54,23.54,0,0,1-3.5-9c-.77-4.3-7.17-4.77-9.14-1.2l-5.11,9.28,5.64-2.3c-9.34-1.45-18.34,2.37-23,10.83l7.85-1a13.39,13.39,0,0,1-4.84-7.93c-1.09-4.89-8.42-4.64-9.65,0l-1.68,6.38c-1.65,6.22,8,8.88,9.64,2.66Z"/><path d="M279.06,141.29c-1,.7-.85,1,.41.85l1.86.72a24.17,24.17,0,0,0,4.94,1.53,11.12,11.12,0,0,0,4.22-.25c2.48-.64,3-.44,2.34-2.85.81,2.89,4.65,4.87,7.35,3,4.3-3,9.6-1.76,14.51-1.31,5.22.47,9.88.16,14.72-1.93,5.89-2.54.81-11.16-5.05-8.64-4.64,2-10.5.33-15.33,0s-9.79.33-13.9,3.22l7.34,3A7.77,7.77,0,0,0,296,132.8c-3.72-.62-6.65,2.16-10.2,1.14s-6.15-2.54-9.89-1.6a8.79,8.79,0,0,0-6.47,6.29c-1.88,6.17,7.77,8.81,9.64,2.66Z"/><path d="M86.76,248.74l5.35-9.6L83,238c1.9,7.38,6.67,15.42,15,16.22,7.4.71,14.24-4.41,14.5-12l-9.32,2.53c4.14,5.82,11.08,7.94,17.95,5.95,7.93-2.29,12.68-9.61,16.62-16.33l-6.85,1.8c11,7,25.4,1.44,30.17-10.22l-9.14,1.2,5.78,10.33a5.06,5.06,0,0,0,7.86,1l14.67-14.1-8.53-3.54c-1.3,16.06,21.82,19.36,25.66,3.91L189,226.93a31.38,31.38,0,0,0,23.28,8.16,30.8,30.8,0,0,0,6.4-1.15c1.58-.47,3.83-1.92,5.11-1.31s2.2,2.78,3.75,3.56a7.85,7.85,0,0,0,4.86.72c3.35-.58,4.74-3.1,7.16-5.08,1.82-1.48,1.58-.38,3.74.57a10.4,10.4,0,0,0,6,.81c4.54-.76,8.41-4.21,12.11-6.73l15.3-10.41-7.34-5.65c-.87,5.62,1.48,10.1,6.38,13.07,4.52,2.72,11.48,2,14.92,6.12,1.87,2.25,5.12,1.54,7.07,0,2.89-2.27,6.81-1.27,9.14,1.19,4.43,4.68,11.49-2.4,7.07-7.07-6.39-6.76-16.2-6.76-23.28-1.19h7.07c-2.32-2.8-5.43-4.29-8.87-5.29-1.52-.44-10.26-1.55-9.86-4.17.6-3.86-3.35-8.37-7.34-5.65l-12.89,8.77L253.15,220c-1.22.83-3.57,3.14-5.11,3.24-1.71.11-3.62-1.77-5.26-2.21a9.37,9.37,0,0,0-4.93,0c-2.5.73-4.34,2.6-6,4.45-.45.51-.91,1-1.4,1.5q2.81.67.88-1a7.9,7.9,0,0,0-2.53-2.42c-3.7-2.31-7.54-1-11.31.19-7.49,2.45-15.33,1.37-21.36-4-2.71-2.4-7.4-1.64-8.36,2.21-1.14,4.62-6.38,3.29-6-1.26s-5.61-6.35-8.54-3.54L158.5,231.38l7.85,1-5.79-10.34c-2.3-4.12-7.61-2.54-9.14,1.19-2.43,6-10.43,7.46-15.47,4.24a5.06,5.06,0,0,0-6.84,1.79c-2.22,3.8-4.54,8.22-8.37,10.64-2.45,1.55-6.92,2.57-8.92-.26-2.82-4-9.14-2.67-9.32,2.52-.09,2.69-4,2.14-5.45,1.21-2.64-1.72-3.7-5.24-4.44-8.1-1.06-4.12-7-4.94-9.14-1.19l-5.35,9.59c-3.13,5.63,5.5,10.67,8.64,5.05Z"/></g></g></svg>