<svg xmlns="http://www.w3.org/2000/svg" viewBox="0 0 206.69 334.55"><g id="Layer_2" data-name="Layer 2"><g id="Layer_1-2" data-name="Layer 1"><path d="M11.68,324.61C8.2,277.26,5,216.29,49.16,185.41c2.62-1.83,3.42-5.41,1-7.85C21.41,148.37,7.27,105.44,21.33,65.83,34.68,28.26,73.84,2.39,113.93,11.9c37.88,9,62.63,48.07,70,84.07a130,130,0,0,1-.42,54.31c-4.2,18.64-12.81,35-24.39,50.14-13.8,18-30,34.9-37.13,57-7.13,22.23-3.65,47.19,8.64,66.92l6.84-6.84a79.53,79.53,0,0,1-35.29-38.85c-6.89-16.3-7.35-34-3.57-51.16,7.65-34.62,28.52-64.86,35.1-99.79,2.76-14.63,6.6-42.48-11.91-48.54-6.13-2-8.76,7.65-2.66,9.64,7.34,2.41,6.72,14.8,6.58,20.81a107.9,107.9,0,0,1-4,25.49c-4.61,17.05-12,33.15-18.88,49.39-13.4,31.82-23.86,65.89-9.29,99.3a88.88,88.88,0,0,0,38.84,42.35c4.25,2.3,9.58-2.45,6.85-6.84C127.12,299.73,124.8,275,134,253.76c8.52-19.66,24.16-35.09,36.67-52.15,23.58-32.15,31.17-73.05,22.15-111.8C184,52,156.86,12.24,117.33,2.44c-41.5-10.29-84.06,13-101.67,51-20.83,45-6.44,96.76,27.44,131.15l1-7.85C-3.55,210.08-2.12,272.92,1.68,324.61c.47,6.38,10.47,6.43,10,0Z"/><path d="M14.05,108.32l34.22,5c4.28.63,8.94,1.9,12.76-.82,3.64-2.58,5.8-7.59,7.52-11.55a54,54,0,0,0,4-14.09,54.46,54.46,0,0,0,.59-7.33c0-1.11,0-2.22-.1-3.34-.11-1.93.64-3.58-1.77-1.66C69.21,76.17,69.94,76,71,78c.69,1.31,1.35,2.64,2,4a64.22,64.22,0,0,1,2.83,8,66.9,66.9,0,0,1,2.52,17.1c.11,4.64,7.09,7.23,9.32,2.53,2.56-5.39,11.37-1.76,15.76-1.38,5.18.46,10.21-.68,14-4.37A18.57,18.57,0,0,0,119,78.83c-4-5-11.06,2.09-7.07,7.07,2,2.47,1.51,6.25,0,8.84-2.56,4.44-7.09,3.81-11.54,3C92.67,96.4,82.94,96.25,79,104.6l9.31,2.52A77.05,77.05,0,0,0,80,73.77c-2-3.89-5-8.91-10.08-8.75-4.59.14-7.11,4.17-7.16,8.37-.07,5.67.43,10.79-1,16.41A43.63,43.63,0,0,1,59,98c-.83,1.74-2,5.16-3.73,6-1.91.95-6.89-.73-9.06-1.05l-9.51-1.39-20-2.93c-6.29-.92-9,8.71-2.66,9.65Z"/><path d="M56.53,157c6.18,8.07,16.5,10,25.81,6.29,10.42-4.19,16.25-14.54,21.17-24,3-5.7-5.67-10.76-8.64-5-3.33,6.41-6.8,13.55-12.83,17.89-4.5,3.24-12.92,5-16.87-.17s-12.55-.07-8.64,5Z"/><path d="M92.47,130.26a16.67,16.67,0,0,1,7,14.64c-.24,6.44,9.76,6.43,10,0a26.93,26.93,0,0,0-12-23.27c-5.31-3.66-10.32,5-5,8.63Z"/><path d="M54.43,131c6.44,0,6.45-10,0-10s-6.44,10,0,10Z"/><path d="M77.4,125.57c6.44,0,6.45-10,0-10s-6.44,10,0,10Z"/><path d="M157.5,207.82a243.64,243.64,0,0,1,38.43,121.81c.21,5.42,8.56,7.06,9.82,1.33l.8-3.66c1.38-6.27-8.26-8.95-9.64-2.66l-.81,3.66,9.83,1.33a253.86,253.86,0,0,0-39.79-126.86c-3.47-5.4-12.13-.39-8.64,5Z"/></g></g></svg>