<svg xmlns="http://www.w3.org/2000/svg" viewBox="0 0 362.18 79.93"><g id="Layer_2" data-name="Layer 2"><g id="Layer_1-2" data-name="Layer 1"><path d="M3.54,47.83C25.18,53.61,47.45,52,69.41,49.16,92,46.27,114.19,43.69,137,43.56c46.56-.27,93.16,1,139.71,1.6l79.36,1c6.43.08,6.44-9.92,0-10L217.17,34.41c-45.52-.57-91.14-2.82-136.38,3.24C56.08,41,30.71,44.74,6.2,38.19c-6.22-1.66-8.88,8-2.66,9.64Z"/><path d="M11.61,73.75q-.9-31.11.5-62.19c.29-6.44-9.71-6.42-10,0Q.71,42.64,1.61,73.75c.18,6.42,10.18,6.45,10,0Z"/><path d="M361.85,75.1l.33-70.27c0-6.44-10-6.44-10,0l-.33,70.27c0,6.44,10,6.45,10,0Z"/><path d="M78.42,67.05l3.4-46c.47-6.42-9.53-6.39-10,0l-3.4,46c-.47,6.42,9.53,6.39,10,0Z"/><path d="M151.1,64.33q2.64-28.54,6.37-57c.84-6.36-9.17-6.3-10,0q-3.74,28.42-6.37,57c-.59,6.41,9.42,6.37,10,0Z"/><path d="M238.61,61.59q-.72-25,.38-50c.28-6.43-9.72-6.42-10,0q-1.1,25-.38,50c.18,6.42,10.18,6.44,10,0Z"/><path d="M307.41,54.83a216.31,216.31,0,0,0-1.58-33.75c-.79-6.3-10.8-6.38-10,0a216.31,216.31,0,0,1,1.58,33.75c-.2,6.44,9.8,6.43,10,0Z"/></g></g></svg>